<mxfile host="app.diagrams.net" agent="Mozilla/5.0 (Windows NT 10.0; Win64; x64) AppleWebKit/537.36 (KHTML, like Gecko) Chrome/128.0.0.0 Safari/537.36" version="24.7.13">
  <diagram name="Página-1" id="2mrk-HP-_fAwY83XtIVn">
    <mxGraphModel dx="1114" dy="592" grid="1" gridSize="10" guides="1" tooltips="1" connect="1" arrows="1" fold="1" page="1" pageScale="1" pageWidth="827" pageHeight="1169" math="0" shadow="0">
      <root>
        <mxCell id="0" />
        <mxCell id="1" parent="0" />
        <mxCell id="GPR2DVeR3QreYbpcR4uf-1" value="&lt;font style=&quot;vertical-align: inherit;&quot;&gt;&lt;font style=&quot;vertical-align: inherit;&quot;&gt;Metodologias Ativas&lt;/font&gt;&lt;/font&gt;" style="rounded=0;whiteSpace=wrap;html=1;" vertex="1" parent="1">
          <mxGeometry x="121" y="30" width="120" height="60" as="geometry" />
        </mxCell>
        <mxCell id="GPR2DVeR3QreYbpcR4uf-53" value="" style="edgeStyle=orthogonalEdgeStyle;rounded=0;orthogonalLoop=1;jettySize=auto;html=1;" edge="1" parent="1" source="GPR2DVeR3QreYbpcR4uf-2" target="GPR2DVeR3QreYbpcR4uf-10">
          <mxGeometry relative="1" as="geometry" />
        </mxCell>
        <mxCell id="GPR2DVeR3QreYbpcR4uf-54" value="" style="edgeStyle=orthogonalEdgeStyle;rounded=0;orthogonalLoop=1;jettySize=auto;html=1;entryX=0.5;entryY=0;entryDx=0;entryDy=0;" edge="1" parent="1" source="GPR2DVeR3QreYbpcR4uf-2" target="GPR2DVeR3QreYbpcR4uf-9">
          <mxGeometry relative="1" as="geometry">
            <Array as="points">
              <mxPoint x="690" y="120" />
              <mxPoint x="610" y="120" />
            </Array>
          </mxGeometry>
        </mxCell>
        <mxCell id="GPR2DVeR3QreYbpcR4uf-2" value="&lt;font style=&quot;vertical-align: inherit;&quot;&gt;&lt;font style=&quot;vertical-align: inherit;&quot;&gt;Pensamento Computacional&lt;/font&gt;&lt;/font&gt;" style="rounded=0;whiteSpace=wrap;html=1;" vertex="1" parent="1">
          <mxGeometry x="630" y="30" width="120" height="60" as="geometry" />
        </mxCell>
        <mxCell id="GPR2DVeR3QreYbpcR4uf-3" value="&lt;font style=&quot;vertical-align: inherit;&quot;&gt;&lt;font style=&quot;vertical-align: inherit;&quot;&gt;Aprendizagem Baseada em Problemas (ABP&lt;/font&gt;&lt;/font&gt;" style="rounded=0;whiteSpace=wrap;html=1;" vertex="1" parent="1">
          <mxGeometry x="141" y="220" width="120" height="60" as="geometry" />
        </mxCell>
        <mxCell id="GPR2DVeR3QreYbpcR4uf-4" value="&lt;font style=&quot;vertical-align: inherit;&quot;&gt;&lt;font style=&quot;vertical-align: inherit;&quot;&gt;Aprendizagem por Projetos&lt;/font&gt;&lt;/font&gt;" style="rounded=0;whiteSpace=wrap;html=1;" vertex="1" parent="1">
          <mxGeometry y="220" width="120" height="60" as="geometry" />
        </mxCell>
        <mxCell id="GPR2DVeR3QreYbpcR4uf-5" value="&lt;font style=&quot;vertical-align: inherit;&quot;&gt;&lt;font style=&quot;vertical-align: inherit;&quot;&gt;Sala de Aula Invertida (Sala de Aula Invertida)&lt;/font&gt;&lt;/font&gt;" style="rounded=0;whiteSpace=wrap;html=1;" vertex="1" parent="1">
          <mxGeometry x="11" y="420" width="120" height="60" as="geometry" />
        </mxCell>
        <mxCell id="GPR2DVeR3QreYbpcR4uf-6" value="&#xa;Gamificação:&#xa;&#xa;" style="rounded=0;whiteSpace=wrap;html=1;" vertex="1" parent="1">
          <mxGeometry x="151" y="420" width="120" height="60" as="geometry" />
        </mxCell>
        <mxCell id="GPR2DVeR3QreYbpcR4uf-7" value="&lt;font style=&quot;vertical-align: inherit;&quot;&gt;&lt;font style=&quot;vertical-align: inherit;&quot;&gt;&lt;font style=&quot;vertical-align: inherit;&quot;&gt;&lt;font style=&quot;vertical-align: inherit;&quot;&gt;&lt;font style=&quot;vertical-align: inherit;&quot;&gt;&lt;font style=&quot;vertical-align: inherit;&quot;&gt;Design Thinking&lt;/font&gt;&lt;/font&gt;&lt;/font&gt;&lt;/font&gt;&lt;/font&gt;&lt;/font&gt;" style="rounded=0;whiteSpace=wrap;html=1;" vertex="1" parent="1">
          <mxGeometry x="290" y="220" width="120" height="60" as="geometry" />
        </mxCell>
        <mxCell id="GPR2DVeR3QreYbpcR4uf-8" value="&lt;font style=&quot;vertical-align: inherit;&quot;&gt;&lt;font style=&quot;vertical-align: inherit;&quot;&gt;Cultura Maker&lt;/font&gt;&lt;/font&gt;" style="rounded=0;whiteSpace=wrap;html=1;" vertex="1" parent="1">
          <mxGeometry x="291" y="420" width="120" height="60" as="geometry" />
        </mxCell>
        <mxCell id="GPR2DVeR3QreYbpcR4uf-9" value="&lt;font style=&quot;vertical-align: inherit;&quot;&gt;&lt;font style=&quot;vertical-align: inherit;&quot;&gt;&lt;font style=&quot;vertical-align: inherit;&quot;&gt;&lt;font style=&quot;vertical-align: inherit;&quot;&gt;Pilares&lt;/font&gt;&lt;/font&gt;&lt;/font&gt;&lt;/font&gt;" style="rounded=0;whiteSpace=wrap;html=1;" vertex="1" parent="1">
          <mxGeometry x="550" y="150" width="120" height="60" as="geometry" />
        </mxCell>
        <mxCell id="GPR2DVeR3QreYbpcR4uf-25" value="" style="edgeStyle=orthogonalEdgeStyle;rounded=0;orthogonalLoop=1;jettySize=auto;html=1;" edge="1" parent="1" source="GPR2DVeR3QreYbpcR4uf-10">
          <mxGeometry relative="1" as="geometry">
            <mxPoint x="750" y="290" as="targetPoint" />
          </mxGeometry>
        </mxCell>
        <mxCell id="GPR2DVeR3QreYbpcR4uf-10" value="Competências&amp;nbsp;" style="rounded=0;whiteSpace=wrap;html=1;" vertex="1" parent="1">
          <mxGeometry x="707" y="150" width="120" height="60" as="geometry" />
        </mxCell>
        <mxCell id="GPR2DVeR3QreYbpcR4uf-11" value="" style="rounded=0;whiteSpace=wrap;html=1;" vertex="1" parent="1">
          <mxGeometry x="160" y="320" width="120" height="60" as="geometry" />
        </mxCell>
        <mxCell id="GPR2DVeR3QreYbpcR4uf-12" value="Estudo de Caso" style="rounded=0;whiteSpace=wrap;html=1;" vertex="1" parent="1">
          <mxGeometry x="20" y="600" width="120" height="60" as="geometry" />
        </mxCell>
        <mxCell id="GPR2DVeR3QreYbpcR4uf-13" value="" style="rounded=0;whiteSpace=wrap;html=1;" vertex="1" parent="1">
          <mxGeometry x="151" y="500" width="120" height="60" as="geometry" />
        </mxCell>
        <mxCell id="GPR2DVeR3QreYbpcR4uf-14" value="Seminários e Discussões" style="rounded=0;whiteSpace=wrap;html=1;" vertex="1" parent="1">
          <mxGeometry x="161" y="600" width="120" height="60" as="geometry" />
        </mxCell>
        <mxCell id="GPR2DVeR3QreYbpcR4uf-15" value="Pesquisa de Campo" style="rounded=0;whiteSpace=wrap;html=1;" vertex="1" parent="1">
          <mxGeometry x="294" y="600" width="120" height="60" as="geometry" />
        </mxCell>
        <mxCell id="GPR2DVeR3QreYbpcR4uf-16" value="" style="rounded=0;whiteSpace=wrap;html=1;" vertex="1" parent="1">
          <mxGeometry x="151" y="680" width="120" height="60" as="geometry" />
        </mxCell>
        <mxCell id="GPR2DVeR3QreYbpcR4uf-17" value="Storytiling" style="rounded=0;whiteSpace=wrap;html=1;" vertex="1" parent="1">
          <mxGeometry x="11" y="760" width="120" height="60" as="geometry" />
        </mxCell>
        <mxCell id="GPR2DVeR3QreYbpcR4uf-18" value="Aprendizagem entre pares e Times" style="rounded=0;whiteSpace=wrap;html=1;" vertex="1" parent="1">
          <mxGeometry x="151" y="760" width="120" height="60" as="geometry" />
        </mxCell>
        <mxCell id="GPR2DVeR3QreYbpcR4uf-19" value="Ensino Hibrido" style="rounded=0;whiteSpace=wrap;html=1;" vertex="1" parent="1">
          <mxGeometry x="300" y="760" width="120" height="60" as="geometry" />
        </mxCell>
        <mxCell id="GPR2DVeR3QreYbpcR4uf-20" value="" style="rounded=0;whiteSpace=wrap;html=1;" vertex="1" parent="1">
          <mxGeometry x="150" y="840" width="120" height="60" as="geometry" />
        </mxCell>
        <mxCell id="GPR2DVeR3QreYbpcR4uf-21" value="Rotação por Estações" style="rounded=0;whiteSpace=wrap;html=1;" vertex="1" parent="1">
          <mxGeometry x="20" y="1130" width="120" height="60" as="geometry" />
        </mxCell>
        <mxCell id="GPR2DVeR3QreYbpcR4uf-22" value="Mapas Conceituais&amp;nbsp;" style="rounded=0;whiteSpace=wrap;html=1;" vertex="1" parent="1">
          <mxGeometry x="180" y="1130" width="120" height="60" as="geometry" />
        </mxCell>
        <mxCell id="GPR2DVeR3QreYbpcR4uf-23" value="Fishbowl&lt;div&gt;(Aquário)&lt;/div&gt;" style="rounded=0;whiteSpace=wrap;html=1;" vertex="1" parent="1">
          <mxGeometry x="331" y="1130" width="120" height="60" as="geometry" />
        </mxCell>
        <mxCell id="GPR2DVeR3QreYbpcR4uf-29" value="" style="edgeStyle=orthogonalEdgeStyle;rounded=0;orthogonalLoop=1;jettySize=auto;html=1;" edge="1" parent="1">
          <mxGeometry relative="1" as="geometry">
            <mxPoint x="750" y="360" as="sourcePoint" />
            <mxPoint x="750" y="440" as="targetPoint" />
          </mxGeometry>
        </mxCell>
        <mxCell id="GPR2DVeR3QreYbpcR4uf-36" value="" style="edgeStyle=orthogonalEdgeStyle;rounded=0;orthogonalLoop=1;jettySize=auto;html=1;" edge="1" parent="1" source="GPR2DVeR3QreYbpcR4uf-33">
          <mxGeometry relative="1" as="geometry">
            <mxPoint x="750" y="550" as="targetPoint" />
          </mxGeometry>
        </mxCell>
        <mxCell id="GPR2DVeR3QreYbpcR4uf-33" value="&lt;p class=&quot;MsoNormal&quot;&gt;&lt;br&gt;&lt;/p&gt;" style="rounded=0;whiteSpace=wrap;html=1;" vertex="1" parent="1">
          <mxGeometry x="680" y="440" width="140" height="70" as="geometry" />
        </mxCell>
        <mxCell id="GPR2DVeR3QreYbpcR4uf-38" value="" style="edgeStyle=orthogonalEdgeStyle;rounded=0;orthogonalLoop=1;jettySize=auto;html=1;" edge="1" parent="1" source="GPR2DVeR3QreYbpcR4uf-35">
          <mxGeometry relative="1" as="geometry">
            <mxPoint x="750" y="680" as="targetPoint" />
          </mxGeometry>
        </mxCell>
        <mxCell id="GPR2DVeR3QreYbpcR4uf-35" value="&lt;p class=&quot;MsoNormal&quot;&gt;&lt;br&gt;&lt;/p&gt;" style="rounded=0;whiteSpace=wrap;html=1;" vertex="1" parent="1">
          <mxGeometry x="680" y="550" width="140" height="70" as="geometry" />
        </mxCell>
        <mxCell id="GPR2DVeR3QreYbpcR4uf-41" value="" style="edgeStyle=orthogonalEdgeStyle;rounded=0;orthogonalLoop=1;jettySize=auto;html=1;" edge="1" parent="1" source="GPR2DVeR3QreYbpcR4uf-37">
          <mxGeometry relative="1" as="geometry">
            <mxPoint x="750" y="790" as="targetPoint" />
          </mxGeometry>
        </mxCell>
        <mxCell id="GPR2DVeR3QreYbpcR4uf-37" value="&lt;p class=&quot;MsoNormal&quot;&gt;&lt;br&gt;&lt;/p&gt;" style="whiteSpace=wrap;html=1;rounded=0;" vertex="1" parent="1">
          <mxGeometry x="690" y="680" width="120" height="65" as="geometry" />
        </mxCell>
        <mxCell id="GPR2DVeR3QreYbpcR4uf-43" value="" style="edgeStyle=orthogonalEdgeStyle;rounded=0;orthogonalLoop=1;jettySize=auto;html=1;" edge="1" parent="1" source="GPR2DVeR3QreYbpcR4uf-40">
          <mxGeometry relative="1" as="geometry">
            <mxPoint x="750" y="870" as="targetPoint" />
          </mxGeometry>
        </mxCell>
        <mxCell id="GPR2DVeR3QreYbpcR4uf-40" value="&lt;p class=&quot;MsoNormal&quot;&gt;&lt;br&gt;&lt;/p&gt;" style="whiteSpace=wrap;html=1;rounded=0;" vertex="1" parent="1">
          <mxGeometry x="690" y="790" width="120" height="57.5" as="geometry" />
        </mxCell>
        <mxCell id="GPR2DVeR3QreYbpcR4uf-45" value="" style="edgeStyle=orthogonalEdgeStyle;rounded=0;orthogonalLoop=1;jettySize=auto;html=1;" edge="1" parent="1" source="GPR2DVeR3QreYbpcR4uf-42">
          <mxGeometry relative="1" as="geometry">
            <mxPoint x="750" y="970" as="targetPoint" />
          </mxGeometry>
        </mxCell>
        <mxCell id="GPR2DVeR3QreYbpcR4uf-42" value="&lt;p class=&quot;MsoNormal&quot;&gt;&lt;br&gt;&lt;/p&gt;" style="whiteSpace=wrap;html=1;rounded=0;" vertex="1" parent="1">
          <mxGeometry x="690" y="870" width="120" height="70" as="geometry" />
        </mxCell>
        <mxCell id="GPR2DVeR3QreYbpcR4uf-47" value="" style="edgeStyle=orthogonalEdgeStyle;rounded=0;orthogonalLoop=1;jettySize=auto;html=1;" edge="1" parent="1" source="GPR2DVeR3QreYbpcR4uf-44">
          <mxGeometry relative="1" as="geometry">
            <mxPoint x="750" y="1070" as="targetPoint" />
          </mxGeometry>
        </mxCell>
        <mxCell id="GPR2DVeR3QreYbpcR4uf-44" value="&lt;p class=&quot;MsoNormal&quot;&gt;Autoconhecimento e autocuidado&lt;/p&gt;" style="whiteSpace=wrap;html=1;rounded=0;" vertex="1" parent="1">
          <mxGeometry x="690" y="970" width="120" height="70" as="geometry" />
        </mxCell>
        <mxCell id="GPR2DVeR3QreYbpcR4uf-49" value="" style="edgeStyle=orthogonalEdgeStyle;rounded=0;orthogonalLoop=1;jettySize=auto;html=1;" edge="1" parent="1" source="GPR2DVeR3QreYbpcR4uf-46">
          <mxGeometry relative="1" as="geometry">
            <mxPoint x="750" y="1170" as="targetPoint" />
          </mxGeometry>
        </mxCell>
        <mxCell id="GPR2DVeR3QreYbpcR4uf-46" value="&lt;p class=&quot;MsoNormal&quot;&gt;Empatia e cooperação&lt;/p&gt;" style="whiteSpace=wrap;html=1;rounded=0;" vertex="1" parent="1">
          <mxGeometry x="690" y="1070" width="120" height="60" as="geometry" />
        </mxCell>
        <mxCell id="GPR2DVeR3QreYbpcR4uf-48" value="&lt;p class=&quot;MsoNormal&quot;&gt;Responsabildade e cidadania&lt;/p&gt;" style="whiteSpace=wrap;html=1;rounded=0;" vertex="1" parent="1">
          <mxGeometry x="690" y="1180" width="120" height="60" as="geometry" />
        </mxCell>
        <mxCell id="GPR2DVeR3QreYbpcR4uf-50" value="Colaborativa" style="whiteSpace=wrap;html=1;rounded=0;" vertex="1" parent="1">
          <mxGeometry x="11" y="120" width="120" height="60" as="geometry" />
        </mxCell>
        <mxCell id="GPR2DVeR3QreYbpcR4uf-52" value="Cooperativa&amp;nbsp;" style="whiteSpace=wrap;html=1;rounded=0;" vertex="1" parent="1">
          <mxGeometry x="261" y="120" width="120" height="60" as="geometry" />
        </mxCell>
        <mxCell id="GPR2DVeR3QreYbpcR4uf-77" value="" style="edgeStyle=orthogonalEdgeStyle;rounded=0;orthogonalLoop=1;jettySize=auto;html=1;entryX=0.5;entryY=0;entryDx=0;entryDy=0;" edge="1" parent="1" source="GPR2DVeR3QreYbpcR4uf-78">
          <mxGeometry relative="1" as="geometry">
            <mxPoint x="51" y="1420" as="targetPoint" />
            <Array as="points">
              <mxPoint x="131" y="1390" />
              <mxPoint x="51" y="1390" />
            </Array>
          </mxGeometry>
        </mxCell>
        <mxCell id="GPR2DVeR3QreYbpcR4uf-104" style="edgeStyle=orthogonalEdgeStyle;rounded=0;orthogonalLoop=1;jettySize=auto;html=1;entryX=0.5;entryY=0;entryDx=0;entryDy=0;" edge="1" parent="1" source="GPR2DVeR3QreYbpcR4uf-78" target="GPR2DVeR3QreYbpcR4uf-97">
          <mxGeometry relative="1" as="geometry" />
        </mxCell>
        <mxCell id="GPR2DVeR3QreYbpcR4uf-78" value="&lt;font style=&quot;vertical-align: inherit;&quot;&gt;&lt;font style=&quot;vertical-align: inherit;&quot;&gt;BNCC&lt;/font&gt;&lt;/font&gt;" style="rounded=0;whiteSpace=wrap;html=1;" vertex="1" parent="1">
          <mxGeometry x="71" y="1300" width="120" height="60" as="geometry" />
        </mxCell>
        <mxCell id="GPR2DVeR3QreYbpcR4uf-79" value="" style="edgeStyle=orthogonalEdgeStyle;rounded=0;orthogonalLoop=1;jettySize=auto;html=1;" edge="1" parent="1">
          <mxGeometry relative="1" as="geometry">
            <mxPoint x="208" y="1480" as="sourcePoint" />
            <mxPoint x="188" y="1520" as="targetPoint" />
          </mxGeometry>
        </mxCell>
        <mxCell id="GPR2DVeR3QreYbpcR4uf-80" value="" style="edgeStyle=orthogonalEdgeStyle;rounded=0;orthogonalLoop=1;jettySize=auto;html=1;" edge="1" parent="1">
          <mxGeometry relative="1" as="geometry">
            <mxPoint x="190.5" y="1590" as="sourcePoint" />
            <mxPoint x="190" y="1630" as="targetPoint" />
          </mxGeometry>
        </mxCell>
        <mxCell id="GPR2DVeR3QreYbpcR4uf-81" value="" style="edgeStyle=orthogonalEdgeStyle;rounded=0;orthogonalLoop=1;jettySize=auto;html=1;" edge="1" parent="1">
          <mxGeometry relative="1" as="geometry">
            <mxPoint x="188" y="1701" as="sourcePoint" />
            <mxPoint x="188" y="1741" as="targetPoint" />
          </mxGeometry>
        </mxCell>
        <mxCell id="GPR2DVeR3QreYbpcR4uf-82" value="" style="edgeStyle=orthogonalEdgeStyle;rounded=0;orthogonalLoop=1;jettySize=auto;html=1;" edge="1" parent="1">
          <mxGeometry relative="1" as="geometry">
            <mxPoint x="188" y="1811" as="sourcePoint" />
            <mxPoint x="188" y="1851" as="targetPoint" />
          </mxGeometry>
        </mxCell>
        <mxCell id="GPR2DVeR3QreYbpcR4uf-83" value="" style="edgeStyle=orthogonalEdgeStyle;rounded=0;orthogonalLoop=1;jettySize=auto;html=1;" edge="1" parent="1">
          <mxGeometry relative="1" as="geometry">
            <mxPoint x="188" y="1921" as="sourcePoint" />
            <mxPoint x="188" y="1961" as="targetPoint" />
          </mxGeometry>
        </mxCell>
        <mxCell id="GPR2DVeR3QreYbpcR4uf-85" value="" style="edgeStyle=orthogonalEdgeStyle;rounded=0;orthogonalLoop=1;jettySize=auto;html=1;" edge="1" parent="1" source="GPR2DVeR3QreYbpcR4uf-86">
          <mxGeometry relative="1" as="geometry">
            <mxPoint x="190" y="2071" as="targetPoint" />
          </mxGeometry>
        </mxCell>
        <mxCell id="GPR2DVeR3QreYbpcR4uf-86" value="&lt;p class=&quot;MsoNormal&quot;&gt;Cultura digital&lt;/p&gt;" style="whiteSpace=wrap;html=1;rounded=0;" vertex="1" parent="1">
          <mxGeometry x="130" y="1961" width="120" height="65" as="geometry" />
        </mxCell>
        <mxCell id="GPR2DVeR3QreYbpcR4uf-87" value="" style="edgeStyle=orthogonalEdgeStyle;rounded=0;orthogonalLoop=1;jettySize=auto;html=1;" edge="1" parent="1" source="GPR2DVeR3QreYbpcR4uf-88">
          <mxGeometry relative="1" as="geometry">
            <mxPoint x="190" y="2151" as="targetPoint" />
          </mxGeometry>
        </mxCell>
        <mxCell id="GPR2DVeR3QreYbpcR4uf-88" value="&lt;p class=&quot;MsoNormal&quot;&gt;Trabalho e projeto de vida&lt;/p&gt;" style="whiteSpace=wrap;html=1;rounded=0;" vertex="1" parent="1">
          <mxGeometry x="130" y="2071" width="120" height="57.5" as="geometry" />
        </mxCell>
        <mxCell id="GPR2DVeR3QreYbpcR4uf-89" value="" style="edgeStyle=orthogonalEdgeStyle;rounded=0;orthogonalLoop=1;jettySize=auto;html=1;" edge="1" parent="1" source="GPR2DVeR3QreYbpcR4uf-90">
          <mxGeometry relative="1" as="geometry">
            <mxPoint x="190" y="2251" as="targetPoint" />
          </mxGeometry>
        </mxCell>
        <mxCell id="GPR2DVeR3QreYbpcR4uf-90" value="&lt;div&gt;&lt;p class=&quot;MsoNormal&quot;&gt;Argumentação&lt;/p&gt;&lt;/div&gt;" style="whiteSpace=wrap;html=1;rounded=0;" vertex="1" parent="1">
          <mxGeometry x="130" y="2151" width="120" height="70" as="geometry" />
        </mxCell>
        <mxCell id="GPR2DVeR3QreYbpcR4uf-91" value="" style="edgeStyle=orthogonalEdgeStyle;rounded=0;orthogonalLoop=1;jettySize=auto;html=1;" edge="1" parent="1" source="GPR2DVeR3QreYbpcR4uf-92">
          <mxGeometry relative="1" as="geometry">
            <mxPoint x="190" y="2351" as="targetPoint" />
          </mxGeometry>
        </mxCell>
        <mxCell id="GPR2DVeR3QreYbpcR4uf-92" value="&lt;p class=&quot;MsoNormal&quot;&gt;Autoconhecimento e autocuidado&lt;/p&gt;" style="whiteSpace=wrap;html=1;rounded=0;" vertex="1" parent="1">
          <mxGeometry x="130" y="2251" width="120" height="70" as="geometry" />
        </mxCell>
        <mxCell id="GPR2DVeR3QreYbpcR4uf-93" value="" style="edgeStyle=orthogonalEdgeStyle;rounded=0;orthogonalLoop=1;jettySize=auto;html=1;" edge="1" parent="1" source="GPR2DVeR3QreYbpcR4uf-94">
          <mxGeometry relative="1" as="geometry">
            <mxPoint x="190" y="2451" as="targetPoint" />
          </mxGeometry>
        </mxCell>
        <mxCell id="GPR2DVeR3QreYbpcR4uf-94" value="&lt;p class=&quot;MsoNormal&quot;&gt;Empatia e cooperação&lt;/p&gt;" style="whiteSpace=wrap;html=1;rounded=0;" vertex="1" parent="1">
          <mxGeometry x="130" y="2351" width="120" height="60" as="geometry" />
        </mxCell>
        <mxCell id="GPR2DVeR3QreYbpcR4uf-95" value="&lt;p class=&quot;MsoNormal&quot;&gt;Responsabilidade e cidadania&lt;/p&gt;" style="whiteSpace=wrap;html=1;rounded=0;" vertex="1" parent="1">
          <mxGeometry x="130" y="2461" width="120" height="60" as="geometry" />
        </mxCell>
        <mxCell id="GPR2DVeR3QreYbpcR4uf-96" value="&lt;font style=&quot;vertical-align: inherit;&quot;&gt;&lt;font style=&quot;vertical-align: inherit;&quot;&gt;&lt;font style=&quot;vertical-align: inherit;&quot;&gt;&lt;font style=&quot;vertical-align: inherit;&quot;&gt;Habilidades&lt;/font&gt;&lt;/font&gt;&lt;/font&gt;&lt;/font&gt;" style="rounded=0;whiteSpace=wrap;html=1;" vertex="1" parent="1">
          <mxGeometry y="1420" width="120" height="60" as="geometry" />
        </mxCell>
        <mxCell id="GPR2DVeR3QreYbpcR4uf-97" value="Competências&amp;nbsp;" style="rounded=0;whiteSpace=wrap;html=1;" vertex="1" parent="1">
          <mxGeometry x="150" y="1420" width="120" height="60" as="geometry" />
        </mxCell>
        <mxCell id="GPR2DVeR3QreYbpcR4uf-98" value="Conhecimento" style="rounded=0;whiteSpace=wrap;html=1;" vertex="1" parent="1">
          <mxGeometry x="121" y="1520" width="140" height="70" as="geometry" />
        </mxCell>
        <mxCell id="GPR2DVeR3QreYbpcR4uf-99" value="Pensamento Critico e Criativo" style="rounded=0;whiteSpace=wrap;html=1;" vertex="1" parent="1">
          <mxGeometry x="120" y="1631" width="140" height="70" as="geometry" />
        </mxCell>
        <mxCell id="GPR2DVeR3QreYbpcR4uf-100" value="&lt;p class=&quot;MsoNormal&quot;&gt;Senso estético e repertório cultural&lt;/p&gt;" style="rounded=0;whiteSpace=wrap;html=1;" vertex="1" parent="1">
          <mxGeometry x="120" y="1741" width="140" height="70" as="geometry" />
        </mxCell>
        <mxCell id="GPR2DVeR3QreYbpcR4uf-101" value="&lt;p class=&quot;MsoNormal&quot;&gt;Comunicação&lt;/p&gt;" style="rounded=0;whiteSpace=wrap;html=1;" vertex="1" parent="1">
          <mxGeometry x="120" y="1851" width="140" height="70" as="geometry" />
        </mxCell>
        <mxCell id="GPR2DVeR3QreYbpcR4uf-102" value="" style="rounded=0;whiteSpace=wrap;html=1;" vertex="1" parent="1">
          <mxGeometry x="690" y="290" width="120" height="60" as="geometry" />
        </mxCell>
      </root>
    </mxGraphModel>
  </diagram>
</mxfile>
